<?xml version="1.0" standalone="no"?>
<!DOCTYPE svg PUBLIC "-//W3C//DTD SVG 1.1//EN" "http://www.w3.org/Graphics/SVG/1.1/DTD/svg11.dtd" >
<svg xmlns="http://www.w3.org/2000/svg">
<metadata></metadata>
<defs>
<font id="eausans_book_lining_oblique" horiz-adv-x="530" >
<font-face units-per-em="2048" ascent="1593" descent="-455" />
<missing-glyph horiz-adv-x="500" />
<glyph horiz-adv-x="2048" />
<glyph horiz-adv-x="2048" />
<glyph unicode="&#xd;" horiz-adv-x="2048" />
<glyph unicode=" " />
<glyph unicode="!" horiz-adv-x="576" d="M74 0l43 197h197l-42 -197h-198zM185 379l205 1138h212l-280 -1138h-137z" />
<glyph unicode="&#x22;" horiz-adv-x="864" d="M273 1124l140 393h204l-213 -393h-131zM607 1124l139 393h205l-214 -393h-130z" />
<glyph unicode="#" horiz-adv-x="1168" d="M58 596l27 129h240l154 367h-220l28 129h244l124 296h129l-124 -296h262l125 296h127l-121 -296h214l-28 -129h-241l-153 -367h218l-27 -129h-243l-122 -293h-129l121 293h-263l-119 -293h-131l123 293h-215zM455 725h263l151 367h-261z" />
<glyph unicode="$" horiz-adv-x="1016" d="M0 218l126 107q41 -50 110 -85.5t152 -43.5l113 522l-81 28q-261 95 -206 354q13 61 46.5 118.5t86.5 109t133.5 88t177.5 48.5l44 205h107l-43 -201q218 -9 343 -169l-129 -107q-95 120 -246 131l-98 -469l44 -17q37 -14 67 -28t61.5 -34t53.5 -42t41.5 -51.5t27 -63 t10.5 -76.5t-10 -91q-33 -156 -158 -267.5t-309 -131.5l-42 -204h-106l42 202q-125 8 -216.5 56t-141.5 112zM388 1100q-16 -75 12.5 -123.5t106.5 -76.5l30 -11l90 426q-102 -20 -163 -81.5t-76 -133.5zM496 200q103 19 172.5 90.5t88.5 160.5q17 83 -27 143t-132 87z" />
<glyph unicode="%" horiz-adv-x="1782" d="M194 1100q41 194 170 313t285 119q155 0 233 -119t37 -313t-169.5 -313.5t-283.5 -119.5q-156 0 -234.5 119.5t-37.5 313.5zM202 -76l1341 1669h129l-1341 -1669h-129zM334 1100q-29 -138 16 -224.5t142 -86.5t178 86.5t110 224.5t-15 224.5t-141 86.5 q-98 0 -179.5 -86.5t-110.5 -224.5zM954 417q41 194 170 313.5t285 119.5q155 0 233 -119.5t37 -313.5t-169.5 -313t-283.5 -119q-156 0 -234.5 119t-37.5 313zM1094 417q-28 -138 16.5 -224.5t141.5 -86.5q98 0 179 86.5t109 224.5q29 138 -15 224.5t-141 86.5 q-98 0 -179.5 -86.5t-110.5 -224.5z" />
<glyph unicode="&#x26;" horiz-adv-x="1395" d="M82 393q30 142 129 249t267 194q-92 115 -118.5 194.5t-4.5 183.5q12 57 47.5 114t89.5 105t132 77.5t165 29.5q70 0 126 -19.5t89 -52t54.5 -75t23 -88t-5.5 -91.5q-14 -67 -44 -123t-78 -104t-101 -86t-129 -82l308 -390q52 83 88 173.5t65 231.5h167 q-38 -174 -91 -297t-131 -231l241 -306h-226l-133 170q-126 -103 -253.5 -148t-271.5 -45q-225 0 -334.5 115t-70.5 301zM256 394q-25 -118 50 -195.5t208 -77.5q229 0 410 161l-363 460q-137 -69 -208 -149t-97 -199zM515 1161.5q-1 -24.5 5.5 -49t14.5 -43.5t27 -47 t34.5 -49t45.5 -58q129 69 191.5 138t82.5 161q16 73 -27 131t-129 58t-154 -58t-84 -131q-6 -28 -7 -52.5z" />
<glyph unicode="'" d="M265 1124l140 393h205l-214 -393h-131z" />
<glyph unicode="(" horiz-adv-x="682" d="M167.5 522q4.5 117 29.5 237q49 230 162 432.5t274 401.5l122 -68q-155 -193 -253 -370t-145 -396q-24 -115 -29 -223.5t8.5 -204.5t36 -176t56.5 -163l-151 -68q-36 93 -60 181.5t-39.5 194t-11 222.5z" />
<glyph unicode=")" horiz-adv-x="682" d="M20 -8q155 193 253 370.5t144 396.5q25 115 30 223.5t-8.5 204t-36 175.5t-56.5 163l150 68q36 -93 60 -181.5t39.5 -193.5t11 -222t-30.5 -237q-48 -230 -161 -433t-274 -402z" />
<glyph unicode="*" horiz-adv-x="840" d="M221 1229l54 100l241 -85l59 273h106l-59 -273l278 85l10 -100l-277 -85l113 -220l-97 -62l-113 220l-208 -220l-73 62l208 220z" />
<glyph unicode="+" horiz-adv-x="1137" d="M120 675l29 137h409l87 409h136l-86 -409h409l-28 -137h-410l-88 -410h-137l88 410h-409z" />
<glyph unicode="," d="M-30 -196l139 393h205l-214 -393h-130z" />
<glyph unicode="-" horiz-adv-x="675" d="M82 501l29 136h493l-29 -136h-493z" />
<glyph unicode="." d="M52 0l42 197h197l-42 -197h-197z" />
<glyph unicode="/" horiz-adv-x="606" d="M-94 -76l772 1669h114l-772 -1669h-114z" />
<glyph unicode="0" horiz-adv-x="1395" d="M161.5 441.5q-10.5 143.5 28.5 317.5q49 230 154 407t252 275.5t314 98.5q125 0 217 -57t140.5 -160t58.5 -246.5t-29 -317.5q-75 -350 -271.5 -566t-447.5 -216q-125 0 -217 57t-140.5 160.5t-59 247zM379 759q-60 -286 1 -454t231 -168t303 168t193 454t-1 454 t-231 168t-303 -168t-193 -454z" />
<glyph unicode="1" horiz-adv-x="1395" d="M378 1180l33 152q163 10 297 62.5t220 122.5h145l-324 -1517h-174l279 1317q-161 -107 -476 -137z" />
<glyph unicode="2" horiz-adv-x="1395" d="M21 0l31 144q311 220 510 374t308 263t153 180t60 146q25 119 -48 196.5t-220 77.5q-183 0 -367 -140l-93 117q138 97 260 139.5t257 42.5q221 0 332 -119t69 -314q-19 -89 -65.5 -168.5t-153 -189t-286.5 -250.5t-463 -340h827l-34 -159h-1077z" />
<glyph unicode="3" horiz-adv-x="1395" d="M39 159l143 117q53 -60 144 -99.5t194 -39.5q193 0 318.5 80t153.5 208q27 128 -64.5 208t-284.5 80h-189l33 158h190q176 0 293 72t140 183q24 112 -54.5 183.5t-252.5 71.5q-105 0 -216.5 -38t-195.5 -102l-92 117q256 182 538 182q258 0 380.5 -114t82.5 -300 q-24 -115 -121.5 -203.5t-237.5 -130.5q134 -20 201.5 -127t39.5 -240q-43 -197 -232 -322.5t-463 -125.5q-154 0 -266.5 49t-181.5 133z" />
<glyph unicode="4" horiz-adv-x="1395" d="M11 379l31 152l1002 986h167l-210 -978h257l-34 -160h-256l-81 -379h-166l80 379h-790zM249 539h585l158 735z" />
<glyph unicode="5" horiz-adv-x="1395" d="M70 159l142 117q48 -62 141 -100.5t198 -38.5q174 0 304 94.5t161 238.5t-59.5 239t-263.5 95q-75 0 -160.5 -23.5t-150.5 -55.5l-139 78l153 714h957l-35 -159h-782l-98 -460q56 27 137 46t152 19q262 0 393.5 -138.5t85.5 -354.5t-236.5 -354.5t-452.5 -138.5 q-297 0 -447 182z" />
<glyph unicode="6" horiz-adv-x="1395" d="M197 759q50 233 156.5 408t267 274t354.5 99q134 0 237.5 -49.5t168.5 -132.5l-142 -117q-56 70 -126.5 105t-171.5 35q-198 0 -347.5 -161.5t-217.5 -476.5q66 92 188.5 156t262.5 64q148 0 252.5 -63t146.5 -175.5t12 -254.5q-20 -94 -75 -182t-136 -157.5t-193 -111.5 t-236 -42q-269 0 -374.5 203.5t-26.5 578.5zM357 470q-30 -142 49.5 -237.5t224.5 -95.5t266 95.5t151 237.5q31 142 -49.5 238t-224.5 96t-265 -96t-152 -238z" />
<glyph unicode="7" horiz-adv-x="1395" d="M279 0q340 859 926 1358h-880l35 159h1092l-32 -144q-318 -270 -549 -606.5t-395 -766.5h-197z" />
<glyph unicode="8" horiz-adv-x="1395" d="M112 425q26 123 131 228.5t244 136.5q-101 33 -161 127t-35 209q38 184 204.5 299t414.5 115t364.5 -115t78.5 -299q-25 -115 -125 -209t-213 -127q126 -31 186 -136.5t34 -228.5q-19 -89 -74 -169.5t-138 -142.5t-199 -99t-246 -37t-230 37t-156.5 99t-77.5 142.5 t-2 169.5zM302 425q-26 -120 54 -204t255 -84t291.5 84.5t142.5 203.5q24 120 -56 204t-255 84q-176 0 -292 -84.5t-140 -203.5zM481 1126q-23 -107 50 -181t237 -74t268.5 74t127.5 181q22 107 -51.5 181t-237.5 74t-268 -74t-126 -181z" />
<glyph unicode="9" horiz-adv-x="1395" d="M106 159l143 117q55 -70 125 -104.5t172 -34.5q200 0 349 161t215 476q-66 -93 -187.5 -156.5t-261.5 -63.5q-225 0 -341 139t-70 354q20 94 75.5 182t136.5 157.5t193 111.5t236 42q269 0 374 -203t24 -578q-50 -233 -156 -408t-266 -274.5t-354 -99.5q-135 0 -238 49 t-169 133zM440 1047q-30 -142 50 -238t225 -96q144 0 265 96t152 238q29 142 -51.5 238t-224.5 96t-265.5 -96t-150.5 -238z" />
<glyph unicode=":" d="M52 0l42 197h197l-42 -197h-197zM241 895l43 197h197l-43 -197h-197z" />
<glyph unicode=";" d="M-30 -196l139 393h205l-214 -393h-130zM241 895l43 197h197l-43 -197h-197z" />
<glyph unicode="&#x3c;" horiz-adv-x="591" d="M135 607l303 425h176l-303 -425l123 -425h-176z" />
<glyph unicode="=" horiz-adv-x="1137" d="M79 485l29 137h955l-28 -137h-956zM159 865l29 136h956l-29 -136h-956z" />
<glyph unicode="&#x3e;" horiz-adv-x="591" d="M6 182l302 425l-121 425h176l121 -425l-302 -425h-176z" />
<glyph unicode="?" horiz-adv-x="1039" d="M234 0l42 197h197l-42 -197h-197zM234 1358q105 87 213.5 134.5t242.5 47.5q196 0 299.5 -120.5t67.5 -289.5q-12 -59 -33.5 -108t-55.5 -91.5t-67.5 -75t-84.5 -74.5l-133 -110q-91 -75 -128 -131.5t-59 -160.5h-167q28 131 83.5 215t133.5 148l134 111q83 67 125.5 125 t62.5 152q21 97 -39.5 174t-173.5 77q-103 0 -177.5 -37.5t-151.5 -102.5z" />
<glyph unicode="@" horiz-adv-x="1729" d="M79 781q8 117 51.5 229.5t119 209t174.5 170t226.5 115.5t265.5 42q233 0 409 -99.5t263 -276t67 -397.5q-17 -188 -141.5 -319.5t-280.5 -131.5q-77 0 -118.5 48t-41.5 133q-22 -56 -79.5 -99.5t-121.5 -64t-121 -20.5q-155 0 -247 122.5t-60 308.5q34 186 169 308.5 t290 122.5q85 0 158.5 -44t92.5 -114l25 140h133l-111 -625q-9 -48 7 -79t65 -31q95 0 169 105t87 255q16 186 -53 332.5t-212 229.5t-336 83q-143 0 -271.5 -58t-219.5 -153t-148.5 -216t-68.5 -248q-16 -192 52.5 -346t211 -242t332.5 -88q259 0 469 192l79 -87 q-119 -103 -264.5 -160.5t-301.5 -57.5q-168 0 -309 63t-234 172t-140 258t-36 318zM584 751q-22 -132 37 -221t169 -89t202 89.5t114 220.5q24 131 -36 220t-170 89q-113 0 -202.5 -88t-113.5 -221z" />
<glyph unicode="A" horiz-adv-x="1334" d="M-108 0l885 1517h197l238 -1517h-197l-56 387h-650l-219 -387h-198zM400 546h538l-110 753z" />
<glyph unicode="B" horiz-adv-x="1289" d="M82 0l323 1517h508q89 0 159 -19t114 -53t71 -81q27 -46 31 -102q1 -13 0 -28q0 -43 -8 -90q-30 -142 -143.5 -245t-268.5 -125q166 -4 252 -101q63 -72 64 -169q0 -34 -8 -72q-45 -204 -199 -318t-410 -114h-485zM297 159h304q326 0 387 281q6 29 6 55q0 77 -52 127 q-70 68 -227 68h-304zM444 850h274q139 0 240 71t127 194q8 40 8 73q0 64 -30 106q-46 64 -188 64h-323z" />
<glyph unicode="C" horiz-adv-x="1319" d="M144 759q48 226 173 403.5t307.5 277.5t391.5 100q279 0 422 -182l-141 -117q-59 74 -132 107t-183 33q-226 0 -407.5 -171t-240.5 -451q-21 -99 -21 -184q1 -157 71 -267q108 -170 334 -171q111 0 198 32.5t176 106.5l91 -117q-219 -182 -499 -182q-209 0 -349 101 q-139 100 -189 278q-25 90 -26 192q0 100 24 211z" />
<glyph unicode="D" horiz-adv-x="1471" d="M82 0l323 1517h402q162 0 290 -47t215.5 -141.5t115.5 -236.5q12 -60 12 -129q0 -94 -22 -204q-32 -149 -99.5 -274t-158 -213.5t-201.5 -150.5t-231 -91.5t-244 -29.5h-402zM297 159h220q122 0 234.5 37t208.5 108.5t167 188.5t102 266q19 94 19 172q0 51 -8 95 q-20 112 -86.5 186t-163 110t-218.5 36h-220z" />
<glyph unicode="E" horiz-adv-x="1107" d="M82 0l323 1517h774l-35 -159h-592l-108 -508h577l-33 -160h-577l-114 -531h607l-33 -159h-789z" />
<glyph unicode="F" horiz-adv-x="1061" d="M82 0l323 1517h789l-35 -159h-607l-108 -508h592l-33 -160h-592l-147 -690h-182z" />
<glyph unicode="G" horiz-adv-x="1426" d="M122 503q-1 19 -1 38q0 102 23 218q48 227 173 403.5t311 277t404 100.5q293 0 436 -182l-141 -117q-110 140 -330 140q-237 0 -420 -170t-243 -452q-21 -99 -21 -184q0 -158 72 -268q111 -170 348 -170q175 0 315 65l93 435h-355l35 159h537l-149 -697 q-246 -122 -510 -122q-131 0 -237.5 37.5t-177.5 106.5t-114 166t-48 216z" />
<glyph unicode="H" horiz-adv-x="1456" d="M82 0l323 1517h182l-143 -667h698l143 667h182l-323 -1517h-182l147 690h-698l-147 -690h-182z" />
<glyph unicode="I" horiz-adv-x="576" d="M82 0l323 1517h182l-323 -1517h-182z" />
<glyph unicode="J" horiz-adv-x="970" d="M-73 161l140 115q30 -63 86.5 -101t127.5 -38q102 0 177 64.5t99 177.5l242 1138h183l-243 -1138q-27 -128 -104 -222.5t-177.5 -140.5t-211.5 -46t-192 51.5t-127 139.5z" />
<glyph unicode="K" horiz-adv-x="1236" d="M82 0l323 1517h182l-152 -713l751 713h228l-804 -743l504 -774h-233l-459 743l-158 -743h-182z" />
<glyph unicode="L" horiz-adv-x="986" d="M82 0l323 1517h182l-290 -1358h607l-33 -159h-789z" />
<glyph unicode="M" horiz-adv-x="1835" d="M82 0l323 1517h287l156 -1302l712 1302h286l-323 -1517h-182l276 1302l-710 -1302h-209l-158 1302l-276 -1302h-182z" />
<glyph unicode="N" horiz-adv-x="1471" d="M82 0l323 1517h258l366 -1274l271 1274h182l-323 -1519h-258l-365 1276l-272 -1274h-182z" />
<glyph unicode="O" horiz-adv-x="1547" d="M144 759q48 225 172 403t299.5 278t370.5 100q194 0 327 -100t181 -278q24 -89 24 -189.5t-24 -213.5q-47 -225 -171 -403.5t-299.5 -278.5t-369.5 -100t-328 100q-133 101 -181 279q-24 90 -24 192q0 100 23 211zM331 430q35 -138 129 -215.5t227 -77.5 q204 0 381.5 172.5t236.5 449.5q20 99 20 185q0 78 -17 144q-35 138 -129.5 215.5t-227.5 77.5q-204 0 -381 -172.5t-236 -449.5q-20 -99 -20 -185q0 -78 17 -144z" />
<glyph unicode="P" horiz-adv-x="1213" d="M82 0l323 1517h470q148 0 247.5 -56.5t136.5 -152.5q22 -57 22 -123q0 -46 -11 -96q-42 -194 -197.5 -311.5t-380.5 -117.5h-288l-140 -660h-182zM438 819h289q143 0 235 75t117 194q8 36 8 67q0 73 -43 127q-61 76 -204 76h-288z" />
<glyph unicode="Q" horiz-adv-x="1547" d="M144 759q48 225 172 403t299.5 278t370.5 100q194 0 327 -100t181 -278q24 -89 24 -189.5t-24 -213.5q-36 -171 -117.5 -316t-197.5 -249l236 -132l-148 -123l-245 138q-175 -100 -368 -100q-194 0 -327.5 100t-181.5 279q-24 90 -24 192q0 100 23 211zM331 430 q35 -139 129 -216t227 -77q204 0 381.5 172.5t236.5 449.5q20 99 20 185q0 78 -17 144q-35 139 -129.5 216t-227.5 77q-204 0 -381 -172.5t-236 -449.5q-20 -99 -20 -185q0 -78 17 -144z" />
<glyph unicode="R" horiz-adv-x="1289" d="M82 0l323 1517h508q89 0 159 -19t114 -53t71 -81q27 -46 31 -102q1 -13 0 -28q0 -43 -8 -90q-27 -130 -123 -231t-223 -136q88 -11 130 -71q40 -58 40 -146v-9l-6 -551h-194l8 520v7q0 73 -40 117q-42 46 -126 46h-335l-147 -690h-182zM444 850h274q139 0 240 71t127 194 q8 40 8 73q0 64 -30 106q-46 64 -188 64h-323z" />
<glyph unicode="S" horiz-adv-x="1130" d="M-6 159l143 117q114 -147 329 -147q141 0 242.5 80.5t128.5 207.5q6 26 6 50q0 139 -191 208l-198 71q-84 30 -139 78t-80 128q-13 43 -13 93q0 44 10 93q13 58 43.5 114.5t82 110t116.5 94.5t153 65.5t186 24.5q266 0 414 -188l-141 -118q-51 65 -130 106t-178 41 q-145 0 -239.5 -75t-116.5 -175q-6 -29 -6 -55q0 -121 138 -170l200 -71q284 -102 284 -330q0 -45 -11 -95q-42 -200 -204.5 -323.5t-390.5 -123.5q-153 0 -263.5 54.5t-174.5 134.5z" />
<glyph unicode="T" horiz-adv-x="1137" d="M190 1365l33 152h1107l-33 -152h-463l-289 -1365h-182l289 1365h-462z" />
<glyph unicode="U" horiz-adv-x="1456" d="M176 242q-9 41 -9 90q0 60 14 131l224 1054h182l-224 -1054q-10 -48 -10 -90q1 -96 55 -157q78 -87 232 -87t270 87t150 247l225 1054h182l-225 -1054q-27 -124 -89 -220t-148 -155t-187 -88.5t-211 -29.5t-198 29t-150.5 89.5t-82.5 153.5z" />
<glyph unicode="V" horiz-adv-x="1289" d="M223 1517h197l156 -1297l709 1297h197l-846 -1517h-213z" />
<glyph unicode="W" horiz-adv-x="1908" d="M238 1517h197l46 -1238l573 1238h216l45 -1238l574 1238h197l-718 -1517h-223l-45 1224l-568 -1224h-223z" />
<glyph unicode="X" horiz-adv-x="1347" d="M-77 0l699 783l-346 734h222l256 -593l511 593h222l-659 -734l366 -783h-220l-279 640l-552 -640h-220z" />
<glyph unicode="Y" horiz-adv-x="1140" d="M132 1517h220l287 -655l566 655h219l-729 -816l-149 -701h-182l149 701z" />
<glyph unicode="Z" horiz-adv-x="1061" d="M-39 0l33 159l953 1199h-683l35 159h880l-35 -159l-953 -1199h713l-33 -159h-910z" />
<glyph unicode="[" horiz-adv-x="637" d="M50 -76l355 1669h364l-30 -144h-197l-293 -1381h197l-32 -144h-364z" />
<glyph unicode="\" horiz-adv-x="606" d="M261 1593h114l62 -1669h-114z" />
<glyph unicode="]" horiz-adv-x="637" d="M-41 -76l32 144h197l293 1381h-197l30 144h364l-355 -1669h-364z" />
<glyph unicode="^" horiz-adv-x="682" d="M193 1198l271 349h182l123 -349h-161l-80 219l-175 -219h-160z" />
<glyph unicode="_" horiz-adv-x="743" d="M-115 0l25 121h744l-26 -121h-743z" />
<glyph unicode="`" horiz-adv-x="682" d="M366 1547h204l101 -349h-131z" />
<glyph unicode="a" horiz-adv-x="1152" d="M68 296q11 53 37.5 101.5t73 94.5t109.5 79.5t152.5 53.5t195.5 20h189l25 114q5 22 5 42q-1 60 -43 107q-56 63 -167 63q-169 0 -296 -105l-84 106q186 151 412 151q189 -1 281 -103q67 -75 67 -179q0 -39 -9 -82l-160 -759h-167l39 182q-52 -91 -156 -148t-229 -57 q-142 0 -222 93q-60 70 -60 161q0 31 7 65zM243 296q-4 -19 -4 -36q-1 -52 33 -86q44 -46 141 -45q75 0 143 33.5t113.5 82.5t74 98.5t37.5 88.5l14 69h-212q-146 0 -234 -62t-106 -143z" />
<glyph unicode="b" horiz-adv-x="1266" d="M67 0l323 1517h167l-128 -599q57 88 170 142.5t220 54.5q94 0 172 -40t128.5 -114t67.5 -179q7 -41 6 -85q0 -71 -16 -151q-27 -127 -89.5 -235.5t-144 -180.5t-176.5 -112.5t-189 -40.5q-106 0 -197 53.5t-112 136.5l-35 -167h-167zM350 546q-15 -68 -15 -127 q-1 -99 43 -173q70 -116 209 -116.5t257 115.5t159 301q14 69 14 128q1 102 -41 174q-66 116 -211 115q-139 0 -257.5 -116.5t-157.5 -300.5z" />
<glyph unicode="c" horiz-adv-x="1001" d="M93 546q34 164 130.5 294.5t229 202.5t275.5 72q87 0 169.5 -38t134.5 -105l-129 -106q-75 97 -207 97q-148 0 -269 -117.5t-160 -299.5q-14 -64 -14 -120q1 -104 47 -180q72 -118 219 -117q131 0 249 97l83 -106q-81 -67 -179 -105t-185 -38q-143 0 -245 72 q-102 73 -143 203q-22 70 -22 150q0 68 16 144z" />
<glyph unicode="d" horiz-adv-x="1266" d="M82 310q-6 40 -6 83q0 71 17 153q27 127 89 235.5t143.5 180.5t176 112.5t188.5 40.5q107 0 197.5 -54.5t110.5 -142.5l128 599h167l-324 -1517h-166l34 167q-56 -83 -169 -136.5t-219 -53.5q-94 0 -171.5 40t-128 114t-67.5 179zM267 546q-15 -68 -15 -127 q0 -99 44 -173q70 -116 208.5 -116.5t256 115.5t158.5 301q14 66 14 124q0 102 -44 176q-69 116 -208 117q-143 0 -258.5 -115.5t-155.5 -301.5z" />
<glyph unicode="e" horiz-adv-x="1122" d="M93 546q52 247 224 408t373 161q204 -1 301 -155q62 -99 62 -240q0 -80 -20 -174l-12 -53h-765q-5 -38 -5 -72q0 -117 58 -193q75 -98 225 -99q153 0 272 97l83 -106q-174 -143 -387 -143q-232 0 -348 158q-79 108 -78 259q0 71 17 152zM294 645h578q2 27 2 52 q0 117 -50 185q-61 82 -166 81q-113 0 -212 -85.5t-152 -232.5z" />
<glyph unicode="f" horiz-adv-x="758" d="M132 948l30 144h213l39 182q22 104 115 181t228 77q85 0 134 -15l-32 -144q-45 15 -90 15q-87 0 -133.5 -36.5t-62.5 -107.5l-31 -152h250l-30 -144h-251l-202 -948h-166l201 948h-212z" />
<glyph unicode="g" horiz-adv-x="1266" d="M-15 -244l129 106q87 -112 279 -112q151 0 273 90.5t153 235.5l29 136q-60 -89 -166 -146.5t-227 -57.5q-94 0 -172 39.5t-128 112t-68 174.5q-7 41 -7 85q0 67 16 142q26 122 87.5 227t142 176t175.5 111t189 40q120 0 201.5 -56.5t106.5 -140.5l37 174h166l-215 -1016 q-45 -206 -213.5 -342t-411.5 -136q-252 0 -376 158zM270 561q-13 -63 -13 -117q0 -99 43 -172q67 -113 210 -113q138 0 256.5 114t155.5 288q13 59 13 111q0 99 -47 175q-70 116 -207 116t-255.5 -115.5t-155.5 -286.5z" />
<glyph unicode="h" horiz-adv-x="1274" d="M67 0l323 1517h167l-129 -607q52 91 156 148t235 57q183 0 265 -112q55 -75 55 -186q0 -55 -13 -119l-149 -698h-167l149 698q9 43 9 80q0 70 -34 116q-52 68 -169 69q-147 0 -260 -109t-155 -308l-116 -546h-167z" />
<glyph unicode="i" d="M67 0l232 1092h167l-232 -1092h-167zM343 1335l39 182h182l-39 -182h-182z" />
<glyph unicode="j" horiz-adv-x="546" d="M-256 -379l30 144q48 -15 89 -15q87 0 133.5 36.5t62.5 107.5l255 1198h167l-261 -1229q-22 -104 -115 -180.5t-228 -76.5q-84 0 -133 15zM358 1335l39 182h183l-40 -182h-182z" />
<glyph unicode="k" horiz-adv-x="1092" d="M67 0l323 1517h167l-197 -925l606 500h228l-658 -531l462 -561h-241l-413 523l-110 -523h-167z" />
<glyph unicode="l" d="M67 0l323 1517h167l-323 -1517h-167z" />
<glyph unicode="m" horiz-adv-x="1850" d="M67 0l232 1092h167l-38 -182q132 205 353 205q59 0 106 -15.5t76 -39t49.5 -55t29.5 -60.5t12 -59q160 229 387 229q165 1 233 -111q43 -70 43 -172q0 -61 -15 -134l-149 -698h-166l148 698q11 55 11 98q0 167 -167 167q-53 0 -108 -27.5t-106 -78.5t-92.5 -132 t-62.5 -179l-116 -546h-167l148 698q11 55 11 98q0 167 -167 167q-53 0 -108 -27.5t-106 -78.5t-92.5 -132t-62.5 -179l-116 -546h-167z" />
<glyph unicode="n" horiz-adv-x="1274" d="M67 0l232 1092h167l-38 -182q52 91 156 148t235 57q183 0 265 -112q55 -75 55 -186q0 -55 -13 -119l-149 -698h-167l149 698q9 43 9 80q0 70 -34 116q-52 68 -169 69q-147 0 -260 -109t-155 -308l-116 -546h-167z" />
<glyph unicode="o" horiz-adv-x="1183" d="M82 310q-7 40 -6 85q0 71 17 151q35 170 131 301t224 199.5t265 68.5q211 0 323 -157q76 -106 75 -258q0 -72 -17 -154q-36 -170 -132.5 -301t-224.5 -199.5t-265 -68.5q-102 0 -184.5 40t-135 114t-70.5 179zM267 546q-15 -68 -15 -127q0 -99 44 -173 q70 -116 208.5 -116.5t256 115.5t158.5 301q14 69 14 128q1 102 -41 174q-66 116 -211 115q-139 0 -257 -116t-157 -301z" />
<glyph unicode="p" horiz-adv-x="1266" d="M-14 -379l313 1471h167l-37 -174q57 88 170 142.5t220 54.5q94 0 172 -40t128.5 -114t67.5 -179q7 -41 7 -85q0 -71 -17 -151q-27 -127 -89.5 -235.5t-144 -180.5t-176.5 -112.5t-189 -40.5q-106 0 -197 53.5t-112 136.5l-116 -546h-167zM350 546q-15 -68 -15 -127 q0 -100 43 -173q70 -117 209 -117t257 116t159 301q14 69 14 128q0 101 -41 174q-67 115 -211 115q-139 0 -257.5 -116.5t-157.5 -300.5z" />
<glyph unicode="q" horiz-adv-x="1266" d="M82 310q-6 40 -6 83q0 71 17 153q27 127 89 235.5t143.5 180.5t176 112.5t188.5 40.5q107 0 197.5 -54.5t110.5 -142.5l37 174h166l-312 -1471h-167l115 546q-56 -83 -169 -136.5t-219 -53.5q-94 0 -171.5 40t-128 114t-67.5 179zM267 546q-15 -68 -15 -127 q0 -100 44 -173q69 -117 208 -117t256.5 116t158.5 301q14 66 14 124q0 102 -44 176q-69 117 -208 117q-143 0 -258.5 -115.5t-155.5 -301.5z" />
<glyph unicode="r" horiz-adv-x="758" d="M67 0l232 1092h167l-35 -167q72 101 167.5 145.5t235.5 44.5l-33 -159q-364 0 -451 -410l-116 -546h-167z" />
<glyph unicode="s" horiz-adv-x="917" d="M-14 120l129 106q33 -42 97 -73.5t146 -31.5q102 0 171 46t84 120q4 16 4 31q0 90 -132 137l-153 55q-118 44 -162 118q-28 49 -29 112q0 34 8 72q27 127 146 219t298 92q207 0 325 -151l-129 -106q-81 105 -228 105q-96 0 -161 -48t-77 -111q-4 -17 -4 -32 q-1 -34 19 -58q28 -36 103 -62l154 -55q200 -72 200 -245q0 -34 -8 -73q-28 -134 -150 -225.5t-311 -91.5q-110 0 -201 44t-139 106z" />
<glyph unicode="t" horiz-adv-x="758" d="M132 948l30 144h213l66 311h167l-66 -311h250l-30 -144h-251l-144 -675q-4 -22 -4 -41q0 -42 21 -66q31 -36 118 -37q43 0 96 15l-31 -144q-54 -15 -139 -15q-136 0 -196 77q-44 56 -44 127q0 26 6 54l150 705h-212z" />
<glyph unicode="u" horiz-adv-x="1274" d="M150 394l149 698h167l-149 -698q-9 -43 -10 -80q-1 -70 35 -116q52 -68 169 -69q147 0 260 109t156 308l115 546h167l-232 -1092h-167l40 182q-53 -91 -157.5 -148t-235.5 -57q-183 0 -265 112q-55 75 -56 186q0 55 14 119z" />
<glyph unicode="v" horiz-adv-x="1107" d="M132 1092h190l145 -918l552 918h190l-680 -1092h-197z" />
<glyph unicode="w" horiz-adv-x="1617" d="M162 1092h187l50 -896l440 896h173l58 -896l432 896h186l-553 -1092h-213l-53 825l-405 -825h-212z" />
<glyph unicode="x" horiz-adv-x="1092" d="M-55 0l507 561l-256 531h206l176 -394l346 394h206l-481 -531l267 -561h-200l-194 428l-376 -428h-201z" />
<glyph unicode="y" horiz-adv-x="1107" d="M-53 -379l30 144q48 -15 90 -15q43 0 74 7.5t51 23t30 27t21 30.5l92 147l-203 1107h190l145 -918l552 918h190l-824 -1321q-11 -17 -23.5 -33.5t-40.5 -42t-59.5 -44t-79.5 -32t-102 -13.5q-84 0 -133 15z" />
<glyph unicode="z" horiz-adv-x="925" d="M-24 0l30 144l702 804h-515l30 144h713l-30 -144l-701 -796h546l-32 -152h-743z" />
<glyph unicode="{" horiz-adv-x="728" d="M114 683l32 151h45q68 0 128.5 49.5t73.5 117.5l77 364q22 100 108.5 171.5t186.5 71.5h126l-29 -136h-103q-41 0 -76 -29t-44 -70l-79 -372q-19 -92 -96.5 -161t-167.5 -81q85 -11 133 -80.5t28 -162.5l-79 -372q-8 -41 14 -69.5t63 -28.5h103l-29 -137h-125 q-100 0 -156 71t-36 172l78 364q15 70 -23 118.5t-108 48.5h-45z" />
<glyph unicode="|" horiz-adv-x="652" d="M70 -379l403 1896h122l-404 -1896h-121z" />
<glyph unicode="}" horiz-adv-x="728" d="M-71 -91l29 137h103q41 0 76.5 28.5t43.5 69.5l78 372q20 93 97 162.5t167 80.5q-85 11 -132 80t-28 162l78 372q9 41 -13.5 70t-63.5 29h-103l29 136h126q100 0 156.5 -71.5t34.5 -171.5l-78 -364q-14 -68 25 -117.5t107 -49.5h46l-32 -151h-45q-70 0 -129.5 -48.5 t-74.5 -118.5l-77 -364q-20 -100 -107 -171.5t-187 -71.5h-126z" />
<glyph unicode="~" horiz-adv-x="869" d="M68 616l111 91q82 67 174 67q51 0 85.5 -15.5t62.5 -51.5l19 -24q25 -31 67 -31q46 0 84 31l109 91l68 -85l-111 -91q-82 -67 -176 -67q-93 0 -145 67l-20 24q-24 30 -68 30q-47 0 -82 -30l-111 -91z" />
<glyph unicode="&#xa1;" horiz-adv-x="576" d="M67 0l279 1138h136l-203 -1138h-212zM355 1320l42 197h198l-43 -197h-197z" />
<glyph unicode="&#xa2;" horiz-adv-x="1001" d="M137 759q47 222 202 376.5t350 184.5l42 197h91l-41 -190q87 -2 165.5 -39.5t130.5 -102.5l-129 -106q-75 94 -199 97l-177 -835q127 3 240 97l85 -106q-80 -65 -175 -102.5t-182 -39.5l-41 -190h-91l41 196q-181 31 -270 186t-42 377zM311 759q-33 -153 14.5 -264 t156.5 -143l173 813q-122 -32 -216.5 -142.5t-127.5 -263.5z" />
<glyph unicode="&#xa3;" horiz-adv-x="1115" d="M-39 0l33 159h174l107 501h-175l21 99h175l74 348q40 186 182 309.5t335 123.5q76 0 135.5 -15t103 -45t69.5 -55.5t58 -66.5l-141 -117q-25 31 -45.5 52t-52 43.5t-72 33.5t-89.5 11q-108 0 -196.5 -82t-111.5 -192l-75 -348h258l-21 -99h-258l-106 -501h648l-34 -159 h-996z" />
<glyph unicode="&#xa5;" horiz-adv-x="1231" d="M135 466l21 98h373l29 137h-373l21 98h308l-337 718h220l287 -655l566 655h220l-643 -718h308l-21 -98h-374l-29 -137h374l-22 -98h-373l-98 -466h-182l98 466h-373z" />
<glyph unicode="&#xa6;" horiz-adv-x="652" d="M133 -76l154 721h121l-153 -721h-122zM335 872l153 721h122l-153 -721h-122z" />
<glyph unicode="&#xa7;" horiz-adv-x="948" d="M17 120l129 106q81 -105 227 -105q96 0 161 48.5t77 111.5q12 54 -16 89t-102 62l-153 55q-242 88 -193 319q26 127 140 218q-61 77 -35 205q27 127 147 219t299 92q203 0 324 -150l-128 -107q-83 105 -230 105q-96 0 -160 -48t-78 -111q-11 -55 18 -90t102 -62l152 -55 q242 -87 194 -318q-29 -132 -141 -219q62 -79 35 -204q-27 -127 -146.5 -219t-298.5 -92q-207 0 -324 150zM322 806q-26 -114 127 -169l170 -61q80 45 99 128q23 115 -129 168l-170 61q-80 -45 -97 -127z" />
<glyph unicode="&#xa8;" horiz-adv-x="591" d="M208 1343l35 166h167l-35 -166h-167zM557 1343l35 166h167l-35 -166h-167z" />
<glyph unicode="&#xa9;" horiz-adv-x="1774" d="M158.5 557q-8.5 97 15.5 202q44 206 183 380.5t335.5 276t402.5 101.5t359 -101.5t217 -276t20 -380.5q-32 -154 -122 -294.5t-213 -242.5t-276.5 -162t-307.5 -60q-103 0 -196 27t-165 76.5t-128 119t-86 153.5t-38.5 181zM258 759q-39 -183 18.5 -339t194 -246.5 t319.5 -90.5q137 0 273.5 53.5t246 144t189.5 216t109 262.5q39 183 -18 338.5t-193.5 246t-319.5 90.5t-358 -90.5t-298.5 -245.5t-162.5 -339zM476 759q48 227 208 371t369 144q181 0 277 -120l-94 -77q-38 49 -86 71t-120 22q-150 0 -270 -113t-159 -298t33 -298.5 t222 -113.5q72 0 129 22t116 71l61 -77q-148 -120 -329 -120q-209 0 -307 144.5t-50 371.5z" />
<glyph unicode="&#xaa;" horiz-adv-x="826" d="M191 963q22 101 120 172t273 71h132l17 79q13 60 -26.5 103.5t-116.5 43.5q-118 0 -205 -71l-57 73q126 104 285 104q133 0 195.5 -71t39.5 -182l-112 -526h-116l28 125q-36 -63 -108 -102t-159 -39q-99 0 -154 64t-36 156zM311 963q-11 -52 20 -83.5t98 -31.5 q52 0 99.5 23t78.5 57.5t51 69t26 61.5l11 47h-147q-102 0 -163.5 -43.5t-73.5 -99.5z" />
<glyph unicode="&#xab;" horiz-adv-x="910" d="M135 607l303 425h176l-303 -425l123 -425h-176zM454 607l303 425h176l-303 -425l122 -425h-176z" />
<glyph unicode="&#xad;" horiz-adv-x="675" d="M82 501l29 136h493l-29 -136h-493z" />
<glyph unicode="&#xae;" horiz-adv-x="1774" d="M158.5 557q-8.5 97 15.5 202q44 206 183 380.5t335.5 276t402.5 101.5t359 -101.5t217 -276t20 -380.5q-32 -154 -122 -294.5t-213 -242.5t-276.5 -162t-307.5 -60q-103 0 -196 27t-165 76.5t-128 119t-86 153.5t-38.5 181zM258 759q-39 -183 18.5 -339t194 -246.5 t319.5 -90.5q137 0 273.5 53.5t246 144t189.5 216t109 262.5q39 183 -18 338.5t-193.5 246t-319.5 90.5t-358 -90.5t-298.5 -245.5t-162.5 -339zM520 258l213 1001h335q144 0 205.5 -69t38.5 -177q-18 -86 -82 -152.5t-147 -89.5q115 -13 112 -149l-4 -364h-128l5 344 q2 52 -26.5 82.5t-82.5 30.5h-222l-97 -457h-120zM760 819h181q91 0 157.5 47t83.5 128q16 76 -14 118t-123 42h-214z" />
<glyph unicode="&#xaf;" horiz-adv-x="682" d="M285 1350l28 129h455l-28 -129h-455z" />
<glyph unicode="&#xb0;" horiz-adv-x="728" d="M226 1252q26 119 128.5 203.5t221.5 84.5t186 -84.5t41 -203.5q-25 -119 -127.5 -204t-221.5 -85t-186 85t-42 204zM347 1252q-15 -70 23.5 -118.5t108.5 -48.5t128.5 48.5t73.5 118.5q15 69 -23 117.5t-107 48.5q-70 0 -129.5 -48t-74.5 -118z" />
<glyph unicode="&#xb1;" horiz-adv-x="1137" d="M8 152l28 136h956l-29 -136h-955zM144 789l29 136h410l86 410h137l-87 -410h410l-29 -136h-410l-88 -410h-136l88 410h-410z" />
<glyph unicode="&#xb2;" horiz-adv-x="781" d="M68 505l20 96q332 273 453 401.5t145 239.5q16 75 -20 128.5t-118 53.5q-65 0 -116 -23.5t-106 -68.5l-64 77q147 122 307 122q137 0 203.5 -82.5t39.5 -206.5q-25 -120 -152.5 -259.5t-410.5 -371.5h461l-23 -106h-619z" />
<glyph unicode="&#xb3;" horiz-adv-x="864" d="M121 611l94 78q35 -46 77 -69.5t108 -23.5q103 0 175 56.5t88 134.5q17 79 -31 136t-151 57h-106l22 105h107q93 0 158.5 48.5t80.5 121.5t-29.5 121t-137.5 48q-65 0 -115.5 -23.5t-105.5 -68.5l-62 77q147 122 305 122q148 0 222 -77t49 -199q-10 -45 -35.5 -85 t-58.5 -67t-64.5 -45t-59.5 -25q74 -20 114.5 -94t23.5 -152q-26 -121 -141.5 -209t-269.5 -88q-93 0 -160 33t-97 88z" />
<glyph unicode="&#xb4;" horiz-adv-x="682" d="M291 1198l249 349h205l-323 -349h-131z" />
<glyph unicode="&#xb5;" horiz-adv-x="1274" d="M-14 -379l313 1471h167l-149 -698q-27 -128 25.5 -196.5t168.5 -68.5q147 0 260 109t156 308l115 546h167l-232 -1092h-167l40 182q-53 -91 -157.5 -148t-235.5 -57q-152 0 -210 84l-94 -440h-167z" />
<glyph unicode="&#xb6;" horiz-adv-x="1122" d="M179 1100q37 172 186 294.5t321 122.5h462l-403 -1896h-159l371 1752h-144l-372 -1752h-159l226 1062q-113 0 -197 56t-120 152t-12 209z" />
<glyph unicode="&#xb7;" d="M159 508l43 197h197l-42 -197h-198z" />
<glyph unicode="&#xb8;" horiz-adv-x="713" d="M-47 -323l73 61q41 -41 101 -41q52 0 85.5 22t39.5 53q7 36 -26.5 58.5t-107.5 22.5l105 147h106l-56 -80q55 -7 89.5 -47t21.5 -101q-14 -62 -87 -110.5t-179 -48.5q-95 0 -165 64z" />
<glyph unicode="&#xb9;" horiz-adv-x="667" d="M250 1293l22 101q63 8 140.5 46t124.5 77h96l-216 -1012h-117l187 879q-34 -28 -102 -55t-135 -36z" />
<glyph unicode="&#xba;" horiz-adv-x="876" d="M217 1138q38 177 161.5 285.5t270.5 108.5t224 -108t39 -286t-161 -286.5t-270 -108.5t-224.5 109t-39.5 286zM338 1138q-27 -129 21 -209.5t145 -80.5q96 0 177.5 81t108.5 209q28 130 -17.5 210t-145.5 80q-97 0 -179 -80.5t-110 -209.5z" />
<glyph unicode="&#xbb;" horiz-adv-x="910" d="M6 182l302 425l-121 425h176l121 -425l-302 -425h-176zM325 182l302 425l-122 425h176l122 -425l-302 -425h-176z" />
<glyph unicode="&#xbc;" horiz-adv-x="1630" d="M65 -76l1341 1669h129l-1341 -1669h-129zM250 1293l22 101q63 8 140.5 46t124.5 77h96l-216 -1012h-117l187 879q-34 -28 -102 -55t-135 -36zM745 253l23 102l606 657h111l-139 -652h150l-23 -107h-150l-53 -253h-111l53 253h-467zM900 360h335l103 480z" />
<glyph unicode="&#xbd;" horiz-adv-x="1714" d="M65 -76l1341 1669h129l-1341 -1669h-129zM250 1293l22 101q63 8 140.5 46t124.5 77h96l-216 -1012h-117l187 879q-34 -28 -102 -55t-135 -36zM909 0l19 96q332 273 453 401.5t145 239.5q16 75 -20 128.5t-118 53.5q-65 0 -115.5 -23.5t-105.5 -68.5l-63 77 q147 122 307 122q137 0 202.5 -82.5t38.5 -206.5q-25 -120 -152.5 -259.5t-410.5 -371.5h461l-22 -106h-619z" />
<glyph unicode="&#xbe;" horiz-adv-x="1858" d="M121 611l94 78q35 -46 77 -69.5t108 -23.5q103 0 175 56.5t88 134.5q17 79 -31 136t-151 57h-106l22 105h107q93 0 158.5 48.5t80.5 121.5t-29.5 121t-137.5 48q-65 0 -115.5 -23.5t-105.5 -68.5l-62 77q147 122 305 122q148 0 222 -77t49 -199q-10 -45 -35.5 -85 t-58.5 -67t-64.5 -45t-59.5 -25q74 -20 114.5 -94t23.5 -152q-26 -121 -141.5 -209t-269.5 -88q-93 0 -160 33t-97 88zM293 -76l1341 1669h129l-1341 -1669h-129zM972 253l23 102l607 657h111l-140 -652h150l-22 -107h-151l-53 -253h-110l53 253h-468zM1127 360h335l104 480 z" />
<glyph unicode="&#xbf;" horiz-adv-x="1039" d="M73 387q24 112 81 188t160 161l135 111q91 76 127.5 132t57.5 159h167q-28 -132 -83 -215.5t-132 -147.5l-135 -111q-83 -68 -126 -126t-63 -151q-20 -97 40 -173.5t173 -76.5q103 0 178.5 37t152.5 102l91 -117q-105 -87 -213.5 -134.5t-242.5 -47.5q-130 0 -223.5 56.5 t-130.5 150t-14 203.5zM658 1320l43 197h197l-42 -197h-198z" />
<glyph unicode="&#xc0;" horiz-adv-x="1334" d="M-108 0l885 1517h197l238 -1517h-197l-56 387h-650l-219 -387h-198zM400 546h538l-110 753zM749 1934h205l100 -349h-130z" />
<glyph unicode="&#xc1;" horiz-adv-x="1334" d="M-108 0l885 1517h197l238 -1517h-197l-56 387h-650l-219 -387h-198zM400 546h538l-110 753zM715 1585l248 349h205l-323 -349h-130z" />
<glyph unicode="&#xc2;" horiz-adv-x="1334" d="M-108 0l885 1517h197l238 -1517h-197l-56 387h-650l-219 -387h-198zM400 546h538l-110 753zM601 1585l271 349h182l123 -349h-161l-80 219l-174 -219h-161z" />
<glyph unicode="&#xc3;" horiz-adv-x="1334" d="M-108 0l885 1517h197l238 -1517h-197l-56 387h-650l-219 -387h-198zM400 546h538l-110 753zM543 1600q20 95 101 161.5t175 66.5q51 0 85 -15.5t62 -51.5l19 -24q24 -30 68 -30t82 31.5t47 74.5h121q-20 -95 -101 -161.5t-175 -66.5q-92 0 -147 67l-18 24q-25 31 -69 31 t-82 -31.5t-47 -75.5h-121z" />
<glyph unicode="&#xc4;" horiz-adv-x="1334" d="M-108 0l885 1517h197l238 -1517h-197l-56 387h-650l-219 -387h-198zM400 546h538l-110 753zM652 1684l35 167h167l-35 -167h-167zM1001 1684l35 167h167l-35 -167h-167z" />
<glyph unicode="&#xc5;" horiz-adv-x="1334" d="M-108 0l885 1517h197l238 -1517h-197l-56 387h-650l-219 -387h-198zM400 546h538l-110 753zM755 1745q15 68 75.5 117t128.5 49t106.5 -49t23.5 -117q-13 -68 -73.5 -117.5t-128.5 -49.5t-107 49.5t-25 117.5zM809 1745q-9 -47 17 -80.5t72 -33.5q47 0 88 34t50 80 q10 46 -16 79.5t-73 33.5q-46 0 -86.5 -33t-51.5 -80z" />
<glyph unicode="&#xc6;" horiz-adv-x="1774" d="M-244 0l1226 1517h864l-35 -159h-591l-108 -508h576l-33 -160h-576l-114 -531h607l-34 -159h-789l82 387h-564l-306 -387h-205zM394 546h472l172 812z" />
<glyph unicode="&#xc7;" horiz-adv-x="1319" d="M144 759q48 226 173 403.5t307.5 277.5t391.5 100q279 0 422 -182l-141 -117q-59 74 -132 107t-183 33q-226 0 -407.5 -171t-240.5 -451q-59 -281 49.5 -451.5t334.5 -170.5q111 0 198 32.5t176 106.5l91 -117q-212 -175 -479 -182l-41 -57q55 -7 89.5 -47t21.5 -101 q-14 -62 -87 -110.5t-179 -48.5q-95 0 -165 64l73 61q41 -41 101 -41q52 0 85.5 22t39.5 53q7 36 -26.5 58.5t-107.5 22.5l91 129q-274 31 -398.5 244t-56.5 533z" />
<glyph unicode="&#xc8;" horiz-adv-x="1107" d="M82 0l323 1517h774l-35 -159h-592l-108 -508h577l-33 -160h-577l-114 -531h607l-33 -159h-789zM675 1934h205l100 -349h-130z" />
<glyph unicode="&#xc9;" horiz-adv-x="1107" d="M82 0l323 1517h774l-35 -159h-592l-108 -508h577l-33 -160h-577l-114 -531h607l-33 -159h-789zM677 1585l248 349h205l-323 -349h-130z" />
<glyph unicode="&#xca;" horiz-adv-x="1107" d="M82 0l323 1517h774l-35 -159h-592l-108 -508h577l-33 -160h-577l-114 -531h607l-33 -159h-789zM525 1585l271 349h182l123 -349h-160l-81 219l-174 -219h-161z" />
<glyph unicode="&#xcb;" horiz-adv-x="1107" d="M82 0l323 1517h774l-35 -159h-592l-108 -508h577l-33 -160h-577l-114 -531h607l-33 -159h-789zM584 1684l35 167h167l-35 -167h-167zM933 1684l35 167h167l-35 -167h-167z" />
<glyph unicode="&#xcc;" horiz-adv-x="576" d="M82 0l323 1517h182l-323 -1517h-182zM334 1934h205l100 -349h-131z" />
<glyph unicode="&#xcd;" horiz-adv-x="576" d="M82 0l323 1517h182l-323 -1517h-182zM381 1585l249 349h204l-323 -349h-130z" />
<glyph unicode="&#xce;" horiz-adv-x="576" d="M82 0l323 1517h182l-323 -1517h-182zM221 1585l272 349h182l123 -349h-161l-80 219l-175 -219h-161z" />
<glyph unicode="&#xcf;" horiz-adv-x="576" d="M82 0l323 1517h182l-323 -1517h-182zM273 1684l35 167h167l-35 -167h-167zM622 1684l35 167h167l-35 -167h-167z" />
<glyph unicode="&#xd0;" horiz-adv-x="1471" d="M70 690l29 137h159l147 690h402q162 0 290 -47t215.5 -141.5t115.5 -236.5t-10 -333q-32 -149 -99.5 -274t-158 -213.5t-201.5 -150.5t-231 -91.5t-244 -29.5h-402l147 690h-159zM297 159h220q122 0 234.5 37t208.5 108.5t167 188.5t102 266q31 154 11 266.5t-86.5 186.5 t-163 110t-218.5 36h-220l-112 -531h159l-29 -137h-159z" />
<glyph unicode="&#xd1;" horiz-adv-x="1471" d="M82 0l323 1517h258l366 -1274l271 1274h182l-323 -1519h-258l-365 1276l-272 -1274h-182zM604 1600q20 95 101 161.5t175 66.5q51 0 85 -15.5t62 -51.5l18 -24q24 -30 69 -30q44 0 81.5 31.5t46.5 74.5h122q-20 -95 -101 -161.5t-175 -66.5q-92 0 -147 67l-19 24 q-25 31 -68 31q-44 0 -82 -31.5t-47 -75.5h-121z" />
<glyph unicode="&#xd2;" horiz-adv-x="1547" d="M144 759q48 225 172 403t299.5 278t370.5 100q194 0 327 -100t181 -278t0 -403q-47 -225 -171 -403.5t-299.5 -278.5t-369.5 -100t-327.5 100t-181.5 278.5t-1 403.5zM331 429.5q35 -138.5 129 -215.5t227 -77q204 0 381.5 172.5t236.5 449.5q38 191 3 329.5 t-129.5 215.5t-227.5 77q-204 0 -381 -172.5t-236 -449.5q-38 -191 -3 -329.5zM755 1934h205l100 -349h-130z" />
<glyph unicode="&#xd3;" horiz-adv-x="1547" d="M144 759q48 225 172 403t299.5 278t370.5 100q194 0 327 -100t181 -278t0 -403q-47 -225 -171 -403.5t-299.5 -278.5t-369.5 -100t-327.5 100t-181.5 278.5t-1 403.5zM331 429.5q35 -138.5 129 -215.5t227 -77q204 0 381.5 172.5t236.5 449.5q38 191 3 329.5 t-129.5 215.5t-227.5 77q-204 0 -381 -172.5t-236 -449.5q-38 -191 -3 -329.5zM927 1585l249 349h205l-324 -349h-130z" />
<glyph unicode="&#xd4;" horiz-adv-x="1547" d="M144 759q48 225 172 403t299.5 278t370.5 100q194 0 327 -100t181 -278t0 -403q-47 -225 -171 -403.5t-299.5 -278.5t-369.5 -100t-327.5 100t-181.5 278.5t-1 403.5zM331 429.5q35 -138.5 129 -215.5t227 -77q204 0 381.5 172.5t236.5 449.5q38 191 3 329.5 t-129.5 215.5t-227.5 77q-204 0 -381 -172.5t-236 -449.5q-38 -191 -3 -329.5zM707 1585l271 349h183l122 -349h-160l-81 219l-174 -219h-161z" />
<glyph unicode="&#xd5;" horiz-adv-x="1547" d="M144 759q48 225 172 403t299.5 278t370.5 100q194 0 327 -100t181 -278t0 -403q-47 -225 -171 -403.5t-299.5 -278.5t-369.5 -100t-327.5 100t-181.5 278.5t-1 403.5zM331 429.5q35 -138.5 129 -215.5t227 -77q204 0 381.5 172.5t236.5 449.5q38 191 3 329.5 t-129.5 215.5t-227.5 77q-204 0 -381 -172.5t-236 -449.5q-38 -191 -3 -329.5zM640 1600q20 95 101 161.5t175 66.5q51 0 85 -15.5t62 -51.5l19 -24q24 -30 68 -30t82 31.5t47 74.5h121q-20 -95 -101 -161.5t-175 -66.5q-92 0 -147 67l-18 24q-25 31 -68 31q-44 0 -82 -31.5 t-47 -75.5h-122z" />
<glyph unicode="&#xd6;" horiz-adv-x="1547" d="M144 759q48 225 172 403t299.5 278t370.5 100q194 0 327 -100t181 -278t0 -403q-47 -225 -171 -403.5t-299.5 -278.5t-369.5 -100t-327.5 100t-181.5 278.5t-1 403.5zM331 429.5q35 -138.5 129 -215.5t227 -77q204 0 381.5 172.5t236.5 449.5q38 191 3 329.5 t-129.5 215.5t-227.5 77q-204 0 -381 -172.5t-236 -449.5q-38 -191 -3 -329.5zM759 1684l34 167h167l-35 -167h-166zM1107 1684l35 167h167l-35 -167h-167z" />
<glyph unicode="&#xd7;" horiz-adv-x="1137" d="M117 416l397 327l-258 328l119 97l258 -328l397 328l76 -97l-398 -328l258 -327l-116 -97l-258 327l-398 -327z" />
<glyph unicode="&#xd8;" horiz-adv-x="1547" d="M20 -76l215 244q-81 107 -105 257t14 334q48 225 172 403t299.5 278t370.5 100q208 0 347 -117l149 170h137l-214 -244q80 -106 103.5 -256t-14.5 -334q-47 -225 -171 -403.5t-299.5 -278.5t-369.5 -100q-207 0 -349 117l-149 -170h-136zM334 759q-56 -264 36 -436 l836 956q-102 102 -255 102q-204 0 -381 -172.5t-236 -449.5zM431 238q104 -101 256 -101q204 0 381.5 172.5t236.5 449.5q56 262 -37 435z" />
<glyph unicode="&#xd9;" horiz-adv-x="1456" d="M176 242q-20 93 5 221l224 1054h182l-224 -1054q-34 -160 44.5 -247t232.5 -87t270 87t150 247l225 1054h182l-225 -1054q-27 -124 -89 -220t-148 -155t-187 -88.5t-211 -29.5t-198 29t-150.5 89.5t-82.5 153.5zM759 1934h204l100 -349h-130z" />
<glyph unicode="&#xda;" horiz-adv-x="1456" d="M176 242q-20 93 5 221l224 1054h182l-224 -1054q-34 -160 44.5 -247t232.5 -87t270 87t150 247l225 1054h182l-225 -1054q-27 -124 -89 -220t-148 -155t-187 -88.5t-211 -29.5t-198 29t-150.5 89.5t-82.5 153.5zM843 1585l249 349h205l-323 -349h-131z" />
<glyph unicode="&#xdb;" horiz-adv-x="1456" d="M176 242q-20 93 5 221l224 1054h182l-224 -1054q-34 -160 44.5 -247t232.5 -87t270 87t150 247l225 1054h182l-225 -1054q-27 -124 -89 -220t-148 -155t-187 -88.5t-211 -29.5t-198 29t-150.5 89.5t-82.5 153.5zM661 1585l272 349h182l123 -349h-161l-80 219l-175 -219 h-161z" />
<glyph unicode="&#xdc;" horiz-adv-x="1456" d="M176 242q-20 93 5 221l224 1054h182l-224 -1054q-34 -160 44.5 -247t232.5 -87t270 87t150 247l225 1054h182l-225 -1054q-27 -124 -89 -220t-148 -155t-187 -88.5t-211 -29.5t-198 29t-150.5 89.5t-82.5 153.5zM713 1684l35 167h167l-35 -167h-167zM1062 1684l35 167 h167l-35 -167h-167z" />
<glyph unicode="&#xdd;" horiz-adv-x="1140" d="M132 1517h220l287 -655l566 655h219l-729 -816l-149 -701h-182l149 701zM637 1585l249 349h205l-323 -349h-131z" />
<glyph unicode="&#xde;" horiz-adv-x="1213" d="M82 0l323 1517h182l-71 -329h288q222 0 328 -120.5t66 -307.5q-40 -193 -195.5 -311t-380.5 -118h-288l-70 -331h-182zM369 490h288q143 0 235 75t117 194q26 119 -34.5 194.5t-203.5 75.5h-289z" />
<glyph unicode="&#xdf;" horiz-adv-x="1213" d="M67 0l239 1126q39 186 178.5 300t334.5 114q194 0 285 -112.5t53 -294.5q-15 -69 -52 -130t-82.5 -101t-84.5 -65t-72 -38q117 -35 174 -135t30 -232q-20 -94 -70.5 -176.5t-125 -144.5t-176.5 -98t-219 -36q-84 0 -133 15l30 145q52 -16 103 -16q161 0 266 86.5 t133 217.5q26 131 -38 217t-216 86h-122l30 144h137q116 0 203.5 76t110.5 185t-30 186t-164 77q-112 0 -201.5 -77.5t-112.5 -185.5l-241 -1133h-167z" />
<glyph unicode="&#xe0;" horiz-adv-x="1152" d="M68 296q11 53 37.5 101.5t73 94.5t109.5 79.5t152.5 53.5t195.5 20h189l25 114q19 86 -37.5 149t-167.5 63q-169 0 -296 -105l-84 106q186 151 412 151q190 0 281.5 -102.5t57.5 -261.5l-160 -759h-167l39 182q-52 -91 -156 -148t-229 -57q-142 0 -222 93t-53 226z M243 296q-15 -76 29.5 -121.5t140.5 -45.5q75 0 143 33.5t113.5 82.5t74 98.5t37.5 88.5l14 69h-212q-146 0 -234 -62t-106 -143zM548 1547h204l101 -349h-131z" />
<glyph unicode="&#xe1;" horiz-adv-x="1152" d="M68 296q11 53 37.5 101.5t73 94.5t109.5 79.5t152.5 53.5t195.5 20h189l25 114q19 86 -37.5 149t-167.5 63q-169 0 -296 -105l-84 106q186 151 412 151q190 0 281.5 -102.5t57.5 -261.5l-160 -759h-167l39 182q-52 -91 -156 -148t-229 -57q-142 0 -222 93t-53 226z M243 296q-15 -76 29.5 -121.5t140.5 -45.5q75 0 143 33.5t113.5 82.5t74 98.5t37.5 88.5l14 69h-212q-146 0 -234 -62t-106 -143zM564 1198l249 349h205l-323 -349h-131z" />
<glyph unicode="&#xe2;" horiz-adv-x="1152" d="M68 296q11 53 37.5 101.5t73 94.5t109.5 79.5t152.5 53.5t195.5 20h189l25 114q19 86 -37.5 149t-167.5 63q-169 0 -296 -105l-84 106q186 151 412 151q190 0 281.5 -102.5t57.5 -261.5l-160 -759h-167l39 182q-52 -91 -156 -148t-229 -57q-142 0 -222 93t-53 226z M243 296q-15 -76 29.5 -121.5t140.5 -45.5q75 0 143 33.5t113.5 82.5t74 98.5t37.5 88.5l14 69h-212q-146 0 -234 -62t-106 -143zM413 1198l271 349h182l123 -349h-161l-80 219l-175 -219h-160z" />
<glyph unicode="&#xe3;" horiz-adv-x="1152" d="M68 296q11 53 37.5 101.5t73 94.5t109.5 79.5t152.5 53.5t195.5 20h189l25 114q19 86 -37.5 149t-167.5 63q-169 0 -296 -105l-84 106q186 151 412 151q190 0 281.5 -102.5t57.5 -261.5l-160 -759h-167l39 182q-52 -91 -156 -148t-229 -57q-142 0 -222 93t-53 226z M243 296q-15 -76 29.5 -121.5t140.5 -45.5q75 0 143 33.5t113.5 82.5t74 98.5t37.5 88.5l14 69h-212q-146 0 -234 -62t-106 -143zM360 1286q20 95 101 161.5t175 66.5q51 0 85 -15.5t62 -51.5l18 -24q24 -30 68 -30t82 31.5t47 74.5h122q-20 -94 -101 -161t-176 -67 q-92 0 -147 67l-18 24q-25 31 -68 31q-44 0 -82 -31.5t-47 -75.5h-121z" />
<glyph unicode="&#xe4;" horiz-adv-x="1152" d="M68 296q11 53 37.5 101.5t73 94.5t109.5 79.5t152.5 53.5t195.5 20h189l25 114q19 86 -37.5 149t-167.5 63q-169 0 -296 -105l-84 106q186 151 412 151q190 0 281.5 -102.5t57.5 -261.5l-160 -759h-167l39 182q-52 -91 -156 -148t-229 -57q-142 0 -222 93t-53 226z M243 296q-15 -76 29.5 -121.5t140.5 -45.5q75 0 143 33.5t113.5 82.5t74 98.5t37.5 88.5l14 69h-212q-146 0 -234 -62t-106 -143zM473 1343l35 166h167l-35 -166h-167zM822 1343l35 166h167l-35 -166h-167z" />
<glyph unicode="&#xe5;" horiz-adv-x="1152" d="M68 296q11 53 37.5 101.5t73 94.5t109.5 79.5t152.5 53.5t195.5 20h189l25 114q19 86 -37.5 149t-167.5 63q-169 0 -296 -105l-84 106q186 151 412 151q190 0 281.5 -102.5t57.5 -261.5l-160 -759h-167l39 182q-52 -91 -156 -148t-229 -57q-142 0 -222 93t-53 226z M243 296q-15 -76 29.5 -121.5t140.5 -45.5q75 0 143 33.5t113.5 82.5t74 98.5t37.5 88.5l14 69h-212q-146 0 -234 -62t-106 -143zM557 1381q15 70 74 118t129 48t108 -48t23 -118t-73.5 -118.5t-128.5 -48.5t-108.5 48.5t-23.5 118.5zM610 1381q-9 -47 17 -80.5t72 -33.5 q47 0 88 34t50 80q10 46 -16 79.5t-73 33.5q-46 0 -86.5 -33t-51.5 -80z" />
<glyph unicode="&#xe6;" horiz-adv-x="1828" d="M68 296q11 53 37.5 101.5t73 94.5t109.5 79.5t152.5 53.5t195.5 20h189l25 114q19 86 -37.5 149t-167.5 63q-169 0 -296 -105l-84 106q186 151 412 151q132 0 216 -49.5t113 -139.5q83 86 183.5 133.5t206.5 47.5q204 0 301 -154.5t42 -414.5l-13 -53h-764 q-22 -168 52.5 -266t224.5 -98q153 0 272 97l83 -106q-174 -143 -386 -143q-143 0 -244 64.5t-145 190.5q-72 -113 -196.5 -184t-279.5 -71q-142 0 -222 93t-53 226zM243 296q-15 -76 29.5 -121.5t140.5 -45.5q75 0 143 33.5t113.5 82.5t74 98.5t37.5 88.5l14 69h-212 q-146 0 -234 -62t-106 -143zM1000 645h578q13 155 -48 236.5t-166 81.5q-113 0 -212 -85.5t-152 -232.5z" />
<glyph unicode="&#xe7;" horiz-adv-x="1001" d="M93 546q34 164 130.5 294.5t229 202.5t275.5 72q87 0 169.5 -38t134.5 -105l-129 -106q-75 97 -207 97q-148 0 -269 -117.5t-160 -299.5t32.5 -299.5t219.5 -117.5q131 0 249 97l83 -106q-78 -64 -173 -102.5t-179 -40.5l-41 -57q55 -7 89.5 -47t21.5 -101 q-14 -62 -87 -110.5t-179 -48.5q-95 0 -165 64l73 61q41 -41 102 -41q52 0 85 22t39 53q7 36 -26.5 58.5t-107.5 22.5l94 132q-179 34 -265 187.5t-39 373.5z" />
<glyph unicode="&#xe8;" horiz-adv-x="1122" d="M93 546q52 247 224 408t373 161q204 0 301 -154.5t42 -414.5l-12 -53h-765q-22 -167 53 -265.5t225 -98.5q153 0 272 97l83 -106q-174 -143 -387 -143q-232 0 -347.5 158t-61.5 411zM294 645h578q13 155 -48 236.5t-166 81.5q-113 0 -212 -85.5t-152 -232.5zM540 1547 h205l100 -349h-130z" />
<glyph unicode="&#xe9;" horiz-adv-x="1122" d="M93 546q52 247 224 408t373 161q204 0 301 -154.5t42 -414.5l-12 -53h-765q-22 -167 53 -265.5t225 -98.5q153 0 272 97l83 -106q-174 -143 -387 -143q-232 0 -347.5 158t-61.5 411zM294 645h578q13 155 -48 236.5t-166 81.5q-113 0 -212 -85.5t-152 -232.5zM580 1198 l248 349h205l-323 -349h-130z" />
<glyph unicode="&#xea;" horiz-adv-x="1122" d="M93 546q52 247 224 408t373 161q204 0 301 -154.5t42 -414.5l-12 -53h-765q-22 -167 53 -265.5t225 -98.5q153 0 272 97l83 -106q-174 -143 -387 -143q-232 0 -347.5 158t-61.5 411zM294 645h578q13 155 -48 236.5t-166 81.5q-113 0 -212 -85.5t-152 -232.5zM413 1198 l271 349h182l123 -349h-161l-80 219l-175 -219h-160z" />
<glyph unicode="&#xeb;" horiz-adv-x="1122" d="M93 546q52 247 224 408t373 161q204 0 301 -154.5t42 -414.5l-12 -53h-765q-22 -167 53 -265.5t225 -98.5q153 0 272 97l83 -106q-174 -143 -387 -143q-232 0 -347.5 158t-61.5 411zM294 645h578q13 155 -48 236.5t-166 81.5q-113 0 -212 -85.5t-152 -232.5zM481 1343 l35 166h167l-35 -166h-167zM830 1343l35 166h167l-35 -166h-167z" />
<glyph unicode="&#xec;" d="M67 0l232 1092h167l-232 -1092h-167zM199 1547h205l100 -349h-131z" />
<glyph unicode="&#xed;" d="M67 0l232 1092h167l-232 -1092h-167zM306 1198l249 349h205l-323 -349h-131z" />
<glyph unicode="&#xee;" d="M67 0l232 1092h167l-232 -1092h-167zM117 1198l271 349h182l123 -349h-161l-80 219l-174 -219h-161z" />
<glyph unicode="&#xef;" d="M67 0l232 1092h167l-232 -1092h-167zM177 1343l35 166h167l-35 -166h-167zM526 1343l35 166h167l-35 -166h-167z" />
<glyph unicode="&#xf0;" horiz-adv-x="1334" d="M106 470q28 130 114.5 241.5t223 181.5t290.5 70q70 0 130.5 -21t100 -53t64.5 -65.5t33 -64.5q63 294 -6 453l-152 -124l-74 95l156 129q-82 69 -209 69q-175 0 -345 -140l-92 117q91 74 216 128t256 54q201 0 320 -108l126 105l75 -96l-127 -104q118 -212 38 -578 q-36 -171 -99 -311.5t-152 -247t-208.5 -165t-259.5 -58.5q-155 0 -261.5 66.5t-146.5 178t-11 248.5zM296 470q-18 -86 4 -160.5t89 -123.5t169 -49q153 0 265 99.5t140 233.5q18 86 -4 161t-88.5 124t-168.5 49q-153 0 -265.5 -100t-140.5 -234z" />
<glyph unicode="&#xf1;" horiz-adv-x="1274" d="M67 0l232 1092h167l-38 -182q52 91 156 148t235 57q183 0 265.5 -112t41.5 -305l-149 -698h-167l149 698q27 128 -25.5 196.5t-168.5 68.5q-147 0 -260 -109t-155 -308l-116 -546h-167zM446 1286q20 95 101 161.5t175 66.5q51 0 85 -15.5t62 -51.5l18 -24q24 -30 69 -30 q44 0 82 31.5t47 74.5h121q-20 -95 -101 -161.5t-175 -66.5q-92 0 -147 67l-18 24q-25 31 -69 31t-82 -31.5t-47 -75.5h-121z" />
<glyph unicode="&#xf2;" horiz-adv-x="1183" d="M82.5 310q-17.5 105 10.5 236q35 170 131 301t224 199.5t265 68.5q211 0 322.5 -157t58.5 -412q-36 -170 -132.5 -301t-224.5 -199.5t-265 -68.5q-102 0 -184.5 40t-135 114t-70 179zM267 546q-41 -184 28.5 -300.5t208.5 -116.5t256.5 116t158.5 301q39 186 -27.5 301.5 t-210.5 115.5q-139 0 -257 -116t-157 -301zM557 1547h205l100 -349h-131z" />
<glyph unicode="&#xf3;" horiz-adv-x="1183" d="M82.5 310q-17.5 105 10.5 236q35 170 131 301t224 199.5t265 68.5q211 0 322.5 -157t58.5 -412q-36 -170 -132.5 -301t-224.5 -199.5t-265 -68.5q-102 0 -184.5 40t-135 114t-70 179zM267 546q-41 -184 28.5 -300.5t208.5 -116.5t256.5 116t158.5 301q39 186 -27.5 301.5 t-210.5 115.5q-139 0 -257 -116t-157 -301zM601 1198l249 349h204l-323 -349h-130z" />
<glyph unicode="&#xf4;" horiz-adv-x="1183" d="M82.5 310q-17.5 105 10.5 236q35 170 131 301t224 199.5t265 68.5q211 0 322.5 -157t58.5 -412q-36 -170 -132.5 -301t-224.5 -199.5t-265 -68.5q-102 0 -184.5 40t-135 114t-70 179zM267 546q-41 -184 28.5 -300.5t208.5 -116.5t256.5 116t158.5 301q39 186 -27.5 301.5 t-210.5 115.5q-139 0 -257 -116t-157 -301zM443 1198l272 349h182l122 -349h-160l-81 219l-174 -219h-161z" />
<glyph unicode="&#xf5;" horiz-adv-x="1183" d="M82.5 310q-17.5 105 10.5 236q35 170 131 301t224 199.5t265 68.5q211 0 322.5 -157t58.5 -412q-36 -170 -132.5 -301t-224.5 -199.5t-265 -68.5q-102 0 -184.5 40t-135 114t-70 179zM267 546q-41 -184 28.5 -300.5t208.5 -116.5t256.5 116t158.5 301q39 186 -27.5 301.5 t-210.5 115.5q-139 0 -257 -116t-157 -301zM391 1286q20 95 101 161.5t175 66.5q51 0 85.5 -15.5t62.5 -51.5l18 -24q24 -30 68 -30t82 31.5t47 74.5h121q-20 -95 -101 -161.5t-175 -66.5q-92 0 -147 67l-18 24q-25 31 -68 31q-44 0 -82 -31.5t-47 -75.5h-122z" />
<glyph unicode="&#xf6;" horiz-adv-x="1183" d="M82.5 310q-17.5 105 10.5 236q35 170 131 301t224 199.5t265 68.5q211 0 322.5 -157t58.5 -412q-36 -170 -132.5 -301t-224.5 -199.5t-265 -68.5q-102 0 -184.5 40t-135 114t-70 179zM267 546q-41 -184 28.5 -300.5t208.5 -116.5t256.5 116t158.5 301q39 186 -27.5 301.5 t-210.5 115.5q-139 0 -257 -116t-157 -301zM504 1343l35 166h166l-34 -166h-167zM853 1343l34 166h167l-35 -166h-166z" />
<glyph unicode="&#xf8;" horiz-adv-x="1183" d="M12 -76l156 185q-135 161 -75 437q35 170 131 301t224 199.5t265 68.5q141 0 240 -73l106 126h114l-157 -185q135 -161 78 -437q-36 -170 -132.5 -301t-224.5 -199.5t-265 -68.5q-141 0 -240 73l-106 -126h-114zM267 546q-38 -174 24 -291l549 654q-63 54 -159 54 q-139 0 -257 -116t-157 -301zM346 185q64 -56 158 -56q139 0 256.5 116t158.5 301q37 183 -22 293z" />
<glyph unicode="&#xf9;" horiz-adv-x="1274" d="M150 394l149 698h167l-149 -698q-27 -128 25.5 -196.5t168.5 -68.5q147 0 260 109t156 308l115 546h167l-232 -1092h-167l40 182q-53 -91 -157.5 -148t-235.5 -57q-183 0 -265.5 112t-41.5 305zM555 1547h205l100 -349h-130z" />
<glyph unicode="&#xfa;" horiz-adv-x="1274" d="M150 394l149 698h167l-149 -698q-27 -128 25.5 -196.5t168.5 -68.5q147 0 260 109t156 308l115 546h167l-232 -1092h-167l40 182q-53 -91 -157.5 -148t-235.5 -57q-183 0 -265.5 112t-41.5 305zM654 1198l249 349h204l-323 -349h-130z" />
<glyph unicode="&#xfb;" horiz-adv-x="1274" d="M150 394l149 698h167l-149 -698q-27 -128 25.5 -196.5t168.5 -68.5q147 0 260 109t156 308l115 546h167l-232 -1092h-167l40 182q-53 -91 -157.5 -148t-235.5 -57q-183 0 -265.5 112t-41.5 305zM488 1198l272 349h182l123 -349h-161l-80 219l-175 -219h-161z" />
<glyph unicode="&#xfc;" horiz-adv-x="1274" d="M150 394l149 698h167l-149 -698q-27 -128 25.5 -196.5t168.5 -68.5q147 0 260 109t156 308l115 546h167l-232 -1092h-167l40 182q-53 -91 -157.5 -148t-235.5 -57q-183 0 -265.5 112t-41.5 305zM542 1343l34 166h167l-35 -166h-166zM891 1343l34 166h167l-35 -166h-166z " />
<glyph unicode="&#xfd;" horiz-adv-x="1107" d="M-53 -379l30 144q48 -15 90 -15q43 0 74 7.5t51 23t30 27t21 30.5l92 147l-203 1107h190l145 -918l552 918h190l-824 -1321q-11 -17 -23.5 -33.5t-40.5 -42t-59.5 -44t-79.5 -32t-102 -13.5q-84 0 -133 15zM525 1198l249 349h204l-323 -349h-130z" />
<glyph unicode="&#xfe;" horiz-adv-x="1266" d="M-14 -379l404 1896h167l-119 -554q57 88 171 143t221 55q94 0 171.5 -40t128 -116.5t66 -186.5t-13.5 -249q-29 -135 -92.5 -248.5t-145.5 -187.5t-177 -115t-189 -41q-106 0 -197 53.5t-112 136.5l-116 -546h-167zM355 569q-43 -200 24.5 -320t207.5 -120t258.5 120 t161.5 320q43 202 -22.5 321t-210.5 119q-140 0 -258 -120t-161 -320z" />
<glyph unicode="&#xff;" horiz-adv-x="1107" d="M-53 -379l30 144q48 -15 90 -15q43 0 74 7.5t51 23t30 27t21 30.5l92 147l-203 1107h190l145 -918l552 918h190l-824 -1321q-11 -17 -23.5 -33.5t-40.5 -42t-59.5 -44t-79.5 -32t-102 -13.5q-84 0 -133 15zM466 1343l35 166h166l-34 -166h-167zM815 1343l35 166h166 l-34 -166h-167z" />
<glyph unicode="&#x152;" horiz-adv-x="2169" d="M144 759q48 225 172 403t299.5 278t370.5 100q153 0 264 -61.5t170 -181.5l47 220h774l-35 -159h-592l-108 -508h577l-33 -160h-577l-114 -531h607l-33 -159h-789l47 220q-110 -118 -248 -180.5t-289 -62.5q-194 0 -327.5 100t-181.5 278.5t-1 403.5zM331 429.5 q35 -138.5 129 -215.5t227 -77q204 0 381.5 172.5t236.5 449.5q38 191 3 329.5t-129.5 215.5t-227.5 77q-204 0 -381 -172.5t-236 -449.5q-38 -191 -3 -329.5z" />
<glyph unicode="&#x153;" horiz-adv-x="1949" d="M82.5 310q-17.5 105 10.5 236q35 170 131 301t224 199.5t265 68.5q131 0 228.5 -64.5t132.5 -176.5q81 112 200 176.5t243 64.5q204 0 301 -154.5t42 -414.5l-12 -53h-765q-22 -167 53 -265.5t225 -98.5q152 0 271 97l84 -106q-174 -143 -387 -143q-142 0 -244 65.5 t-146 182.5q-89 -117 -212 -182.5t-255 -65.5q-102 0 -184.5 40t-135 114t-70 179zM267 546q-41 -184 28.5 -300.5t208.5 -116.5t256.5 116t158.5 301q39 186 -27.5 301.5t-210.5 115.5q-139 0 -257 -116t-157 -301zM1121 645h578q13 155 -48 236.5t-166 81.5 q-113 0 -212 -85.5t-152 -232.5z" />
<glyph unicode="&#x178;" horiz-adv-x="1140" d="M132 1517h220l287 -655l566 655h219l-729 -816l-149 -701h-182l149 701zM548 1646l35 167h166l-34 -167h-167zM897 1646l34 167h167l-35 -167h-166z" />
<glyph unicode="&#x2c6;" horiz-adv-x="682" d="M193 1198l271 349h182l123 -349h-161l-80 219l-175 -219h-160z" />
<glyph unicode="&#x2dc;" horiz-adv-x="866" d="M234 1286q20 95 101 161.5t175 66.5q51 0 85 -15.5t62 -51.5l18 -24q24 -30 68 -30t82 31.5t47 74.5h122q-20 -95 -101 -161.5t-175 -66.5q-93 0 -148 67l-18 24q-25 31 -68 31q-44 0 -82 -31.5t-47 -75.5h-121z" />
<glyph unicode="&#x2000;" horiz-adv-x="967" />
<glyph unicode="&#x2001;" horiz-adv-x="1934" />
<glyph unicode="&#x2002;" horiz-adv-x="967" />
<glyph unicode="&#x2003;" horiz-adv-x="1934" />
<glyph unicode="&#x2004;" horiz-adv-x="644" />
<glyph unicode="&#x2005;" horiz-adv-x="483" />
<glyph unicode="&#x2006;" horiz-adv-x="322" />
<glyph unicode="&#x2007;" horiz-adv-x="322" />
<glyph unicode="&#x2008;" horiz-adv-x="241" />
<glyph unicode="&#x2009;" horiz-adv-x="386" />
<glyph unicode="&#x200a;" horiz-adv-x="107" />
<glyph unicode="&#x2010;" horiz-adv-x="675" d="M82 501l29 136h493l-29 -136h-493z" />
<glyph unicode="&#x2011;" horiz-adv-x="675" d="M82 501l29 136h493l-29 -136h-493z" />
<glyph unicode="&#x2012;" horiz-adv-x="675" d="M82 501l29 136h493l-29 -136h-493z" />
<glyph unicode="&#x2013;" horiz-adv-x="1274" d="M82 501l29 136h1092l-29 -136h-1092z" />
<glyph unicode="&#x2014;" horiz-adv-x="1850" d="M82 501l29 136h1668l-28 -136h-1669z" />
<glyph unicode="&#x2018;" d="M253 1124l214 393h131l-140 -393h-205z" />
<glyph unicode="&#x2019;" d="M265 1124l140 393h205l-214 -393h-131z" />
<glyph unicode="&#x201a;" d="M-30 -196l139 393h205l-214 -393h-130z" />
<glyph unicode="&#x201c;" horiz-adv-x="864" d="M253 1124l214 393h131l-140 -393h-205zM587 1124l214 393h130l-139 -393h-205z" />
<glyph unicode="&#x201d;" horiz-adv-x="864" d="M265 1124l140 393h205l-214 -393h-131zM599 1124l140 393h205l-214 -393h-131z" />
<glyph unicode="&#x201e;" horiz-adv-x="864" d="M-30 -196l139 393h205l-214 -393h-130zM303 -196l140 393h205l-214 -393h-131z" />
<glyph unicode="&#x2022;" horiz-adv-x="621" d="M165 607q13 66 70 112.5t123 46.5t103 -46.5t23 -112.5q-13 -66 -70 -112.5t-123 -46.5t-103 46.5t-23 112.5z" />
<glyph unicode="&#x2026;" horiz-adv-x="1122" d="M52 0l42 197h197l-42 -197h-197zM347 0l43 197h197l-42 -197h-198zM643 0l43 197h197l-43 -197h-197z" />
<glyph unicode="&#x202f;" horiz-adv-x="386" />
<glyph unicode="&#x2039;" horiz-adv-x="591" d="M135 607l303 425h176l-303 -425l123 -425h-176z" />
<glyph unicode="&#x203a;" horiz-adv-x="591" d="M6 182l302 425l-121 425h176l121 -425l-302 -425h-176z" />
<glyph unicode="&#x205f;" horiz-adv-x="483" />
<glyph unicode="&#x20ac;" horiz-adv-x="1350" d="M11 592l21 98h130q4 34 12 69l8.5 34l8.5 34h-130l21 98h141q105 278 326.5 446.5t497.5 168.5q278 0 421 -182l-141 -117q-59 74 -132 107t-183 33q-188 0 -349.5 -122.5t-246.5 -333.5h622l-22 -98h-635l-8.5 -34l-8.5 -34q-8 -35 -12 -69h636l-22 -98h-622 q-4 -210 105.5 -332.5t298.5 -122.5q111 0 198.5 33t176.5 106l91 -117q-219 -182 -499 -182q-276 0 -426 168.5t-136 446.5h-142z" />
<glyph unicode="&#x2122;" horiz-adv-x="846" d="M235 1470l11 47h282l-11 -47h-109l-71 -332h-58l71 332h-115zM493 1138l82 379h89l34 -311l167 311h91l-82 -379h-58l67 311l-168 -311h-64l-34 311l-66 -311h-58z" />
<glyph unicode="&#xe000;" horiz-adv-x="1092" d="M0 0v1092h1092v-1092h-1092z" />
<glyph unicode="&#xfb01;" horiz-adv-x="1289" d="M132 948l30 144h213l39 182q22 104 115 181t228 77q85 0 134 -15l-32 -144q-45 15 -90 15q-87 0 -133.5 -36.5t-62.5 -107.5l-31 -152h250l-30 -144h-251l-202 -948h-166l201 948h-212zM825 0l232 1092h167l-232 -1092h-167zM1101 1335l40 182h182l-40 -182h-182z" />
<glyph unicode="&#xfb02;" horiz-adv-x="1289" d="M132 948l30 144h213l39 182q22 104 115 181t228 77q85 0 134 -15l-32 -144q-45 15 -90 15q-87 0 -133.5 -36.5t-62.5 -107.5l-31 -152h250l-30 -144h-251l-202 -948h-166l201 948h-212zM825 0l323 1517h167l-323 -1517h-167z" />
</font>
</defs>
</svg>
